{"title":"Adam &amp; Paul 2004 DVDRip XviD AC3 5.1 titler","uid":8619927,"size":1024585221,"categoryP":"video","categoryS":"movies","magnet":"?xt=urn:btih:7c33d92a3fc7eb5bd5954fd039583088d1f0ed9b&amp;dn=Adam+%26amp%3B+Paul+2004+DVDRip+XviD+AC3+5.1+titler&amp;tr=udp%3A%2F%2Ftracker.openbittorrent.com%3A80&amp;tr=udp%3A%2F%2Fopen.demonii.com%3A1337&amp;tr=udp%3A%2F%2Ftracker.coppersurfer.tk%3A6969&amp;tr=udp%3A%2F%2Fexodus.desync.com%3A6969","seeders":1,"leechers":0,"uploader":"movieZ.freak","files":7,"time":1372345337,"description":"SOURCE: DVD5\n\n &lt;a href=&quot;\nhttp://www.imdb.com/title/tt0419420/&quot; rel=&quot;nofollow&quot; target=&quot;_NEW&quot;&gt;\nhttp://www.imdb.com/title/tt0419420/&lt;/a&gt;\n &lt;a href=&quot;\nhttp://www.rottentomatoes.com/m/adam_and_paul/&quot; rel=&quot;nofollow&quot; target=&quot;_NEW&quot;&gt;\nhttp://www.rottentomatoes.com/m/adam_and_paul/&lt;/a&gt;\n\n\n- SAMPLE: Yes\n\n- LANGUAGE: English\n\n- SUBTITLE: English\n\n\nDIRECTOR: Lenny Abrahamson\n\n\nCOVER/MENU:\n-----------\n\n\n\nCAST:\n---------\nTom Murphy, Mark O'Halloran, Gary Egan, Deirdre Molloy, Mary Murray, Michael McElhatton\n\n\nPLOT:\n---------\nFriends since they were small boys, Adam and Paul - and we never learn which is which - have withered into two hapless, desperate Dublin junkies, tied together by\nhabit and necessity. A stylized, downbeat comedy, the film follows the pair through a single day, which, like every other, is entirely devoted to the business of scrounging and robbing money for drugs.The difference today is that Adam and Paul - already near rock bottom - have finally run out of luck, credit and friends.\nStylistically, 'Adam &amp; Paul' is a cold, contemporary take on classic, physical comedy. Thematically, it is a minimal fairytale about two baffled, vulnerable children in the grip of forces too powerful for them to handle; vulnerable, lost, sometimes pathetically optimistic, but always profoundly damaged. 'Adam &amp; Paul' is not a film without hope; it is a tender, unsentimental and very funny testament to the persistence of the human spirit in even the most damaged and marginal of people.\n\n\nGeneral\n-----------\n\nFormat : AVI\nFormat/Info : Audio Video Interleave\nFile size : 900 MiB\nDuration : 1h 22mn\nOverall bit rate : 1525 Kbps\nWriting application : VirtualDubMod 1.5.4.1\nWriting library : VirtualDubMod build 2178\n\nVideo\n----------\n\nFormat : MPEG-4 Visual\nFormat profile : Advanced Simple@L5\nFormat settings, BVOP : 1\nFormat settings, QPel : No\nFormat settings, GMC : No warppoints\nFormat settings, Matrix : Custom\nCodec ID : XVID\nCodec ID/Hint : XviD\nDuration : 1h 22mn\nBit rate : 1134 Kbps\nWidth : 608 pixels\nHeight : 352 pixels\nDisplay aspect ratio : 1.727\nFrame rate : 25.000 fps\nColor space : YUV\nChroma subsampling : 4:2:0\nBit depth : 8 bits\nScan type : Progressive\nCompression mode : Lossy\nBits/(Pixel*Frame) : 0.212\nStream size : 670 MiB (74%)\nWriting library : XviD 64\n\nAudio\n------\n\nFormat : AC-3\nFormat/Info : Audio Coding 3\nMode extension : CM (complete main)\nFormat settings, Endianness : Big\nCodec ID : 2000\nDuration : 1h 22mn\nBit rate mode : Constant\nBit rate : 384 Kbps\nChannel(s) : 6 channels\nChannel positions : Front: L C R, Side: L R, LFE\nSampling rate : 48.0 KHz\nBit depth : 16 bits\nCompression mode : Lossy\nStream size : 227 MiB (25%)\nAlignment : Split accross interleaves\nInterleave, duration : 96 ms (2.40 video frames)\nInterleave, preload duration : 96 ms\nLanguage : English","torrent":{"xt":"urn:btih:7c33d92a3fc7eb5bd5954fd039583088d1f0ed9b","amp;dn":"Adam+%26amp%3B+Paul+2004+DVDRip+XviD+AC3+5.1+titler","amp;tr":["udp%3A%2F%2Ftracker.openbittorrent.com%3A80","udp%3A%2F%2Fopen.demonii.com%3A1337","udp%3A%2F%2Ftracker.coppersurfer.tk%3A6969","udp%3A%2F%2Fexodus.desync.com%3A6969"],"infoHash":"7c33d92a3fc7eb5bd5954fd039583088d1f0ed9b","infoHashBuffer":{"type":"Buffer","data":[124,51,217,42,63,199,235,91,213,149,79,208,57,88,48,136,209,240,237,155]},"announce":[],"urlList":[]}}